<svg xmlns="http://www.w3.org/2000/svg" width="365.546" height="591.999" viewBox="0 0 96.717 156.633"><path d="M.005 78.4l48.661-25.968L96.7 78.212l-47.991 25.99z" fill="#009f42"/><path d="M.005 78.4l48.661-25.968L96.7 78.212l-47.991 25.99z" fill="#01c853"/><path d="M48.666 52.432L96.7 78.212l-47.991 25.99z" fill="#009f42"/><path d="M48.666 82.382l48.033-4.17-47.991 25.99-.042-21.82z" fill="#007831"/><path d="M48.666 82.382L.006 78.4l48.617 25.8.042-21.819z" fill="#009f42"/><path d="M0 85.305c17.045 9.041 34.806 18.517 48.557 25.844l48.16-25.837c-17.437 25.912-31.962 47.465-48.16 71.321C32.339 132.827 14.417 106.55 0 85.305z" fill="#009f42"/><path d="M0 85.305c17.045 9.041 34.806 18.517 48.557 25.844l48.16-25.837c-17.437 25.912-31.962 47.465-48.16 71.321C32.339 132.827 14.417 106.55 0 85.305z" fill="#01c853"/><path d="M48.557 111.15l48.16-25.838c-17.437 25.912-48.16 71.321-48.16 71.321z" fill="#009f42"/><path d="M48.557 111.15l48.16-25.838c-17.437 25.912-31.962 47.465-48.16 71.321z" fill="#009f42"/><path d="M48.548 45.21L.006 70.772 48.337 0l48.362 70.926z" fill="#01c853"/><path d="M48.548 45.21L48.337 0l48.362 70.926z" fill="#009f42"/></svg>