<svg width="176" height="40" viewBox="0 0 176 40" fill="none" xmlns="http://www.w3.org/2000/svg">
<g clip-path="url(#clip0)">
<path d="M65.7783 16.205H64.4599C63.4511 16.205 62.637 16.155 62.637 16.155L61.0089 15.025C60.7941 14.88 60.6243 14.76 60.3597 14.76C59.8303 14.76 59.8103 15.07 59.8103 15.41V19.37C59.8103 19.54 59.8802 19.73 60.1699 19.8L61.3934 20.04V21.67H55.76V20.04L57.0086 19.8C57.2982 19.73 57.3432 19.535 57.3432 19.37V7.99501C57.3432 7.82501 57.2932 7.63501 57.0086 7.56501L55.76 7.32501V5.69501H65.7334C68.7998 5.69501 70.383 7.37501 70.383 10.615C70.383 12.555 70.383 16.205 65.7783 16.205ZM64.6746 7.80501H59.8303V13.875C61.0988 14.14 62.8967 14.14 64.1952 14.14C66.6873 14.14 67.816 13.97 67.816 10.875C67.816 8.28501 66.6873 7.80501 64.6746 7.80501Z" fill="#0500F4"/>
<path d="M84.6214 20.045L85.4854 19.855C85.7001 19.805 85.87 19.785 85.87 19.565C85.87 19.445 85.845 19.375 85.7751 19.18L84.961 17.07H76.6407L75.7767 19.23C75.7068 19.4 75.6818 19.47 75.6818 19.565C75.6818 19.78 75.8516 19.83 76.0913 19.875L76.9304 20.045V21.675H71.5816V20.045L72.6853 19.805C73.0449 19.735 73.1648 19.565 73.2846 19.255L78.0541 8.12001C78.1739 7.83001 78.104 7.61501 77.7894 7.57001L76.5208 7.35501V5.70001H82.9484L88.3421 19.26C88.5318 19.69 88.6767 19.74 89.1112 19.835L90.12 20.05V21.68H84.6314V20.045H84.6214ZM81.4101 8.04501C81.2653 7.68501 81.1954 7.49501 80.8358 7.49501C80.4762 7.49501 80.4063 7.68501 80.2615 8.04501L77.4348 15.1H84.1969L81.4101 8.04501Z" fill="#0500F4"/>
<path d="M101.667 16.205H100.348C99.3392 16.205 98.5252 16.155 98.5252 16.155L96.8971 15.025C96.6823 14.88 96.5125 14.76 96.2478 14.76C95.7185 14.76 95.6985 15.07 95.6985 15.41V19.37C95.6985 19.54 95.7684 19.73 96.0581 19.8L97.2816 20.04V21.67H91.6432V20.04L92.8918 19.8C93.1814 19.73 93.2264 19.535 93.2264 19.37V7.99501C93.2264 7.82501 93.1764 7.63501 92.8918 7.56501L91.6432 7.32501V5.69501H101.617C104.683 5.69501 106.266 7.37501 106.266 10.615C106.266 12.555 106.266 16.205 101.667 16.205ZM100.563 7.80501H95.7185V13.875C96.987 14.14 98.7849 14.14 100.083 14.14C102.575 14.14 103.704 13.97 103.704 10.875C103.704 8.28501 102.575 7.80501 100.563 7.80501Z" fill="#0500F4"/>
<path d="M121.873 7.565C121.608 7.635 121.538 7.83 121.538 7.995V16.85C121.538 20.115 120.939 21.84 115.211 21.84C112.404 21.84 110.366 21.335 110.366 21.335L110.656 19.415C110.656 19.415 112.669 19.845 115.116 19.845C119.071 19.845 119.141 18.955 119.141 16.605V15.98C119.141 15.645 119.091 15.285 118.567 15.285C118.302 15.285 118.137 15.405 117.943 15.55L116.265 16.725C116.265 16.725 115.545 16.845 114.656 16.845C110.556 16.845 109.572 15.5 109.572 12.14V7.99C109.572 7.82 109.522 7.63 109.238 7.56L108.039 7.32V5.69H113.503V7.32L112.354 7.56C112.064 7.63 111.995 7.825 111.995 7.99V11.95C111.995 14.495 112.714 14.83 115.59 14.83C117.533 14.83 119.066 14.42 119.066 14.42V7.995C119.066 7.825 119.016 7.635 118.732 7.565L117.583 7.325V5.695H123.072V7.325L121.873 7.565Z" fill="#0500F4"/>
<path d="M129.374 19.37C129.374 19.54 129.424 19.73 129.709 19.8L130.932 20.04V21.67H125.299V20.04L126.548 19.8C126.837 19.73 126.882 19.535 126.882 19.37V7.99501C126.882 7.82501 126.832 7.63501 126.548 7.56501L125.299 7.32501V5.69501H134.983C138.673 5.69501 139.922 6.87001 139.922 10.185C139.922 11.555 139.587 12.585 138.913 13.33C138.289 14.025 137.355 14.34 136.446 14.435C136.111 14.485 135.822 14.53 135.822 14.915C135.822 15.105 135.917 15.225 136.037 15.395L138.623 19.21C138.913 19.64 139.198 19.715 139.727 19.835L140.661 20.05V21.68H137.135L134.139 17.17V14.7H129.369V19.37H129.374ZM136.881 8.38001C136.496 8.02001 135.752 7.80501 134.149 7.80501H129.379V12.605H134.149C135.757 12.605 136.496 12.365 136.881 12.03C137.31 11.6 137.335 10.975 137.335 10.205C137.335 9.46001 137.31 8.81001 136.881 8.38001Z" fill="#0500F4"/>
<path d="M159.1 7.56501C158.81 7.63501 158.765 7.83001 158.765 7.99501V19.37C158.765 19.54 158.815 19.73 159.1 19.8L160.323 20.04V21.67H156.558L156.388 20.66C156.338 20.47 156.293 20.13 155.838 20.13C155.574 20.13 155.409 20.275 155.189 20.42L153.202 21.715C153.202 21.715 151.883 21.835 151.214 21.835C146.23 21.835 145.076 20.49 145.076 16.075V7.99501C145.076 7.82501 145.026 7.63501 144.741 7.56501L143.493 7.32501V5.69501H149.126V7.32501L147.903 7.56501C147.613 7.63501 147.568 7.83001 147.568 7.99501V15.77C147.568 19.105 148.117 19.73 151.429 19.73C154.16 19.73 156.273 19.18 156.273 19.18V7.99501C156.273 7.82501 156.223 7.63501 155.938 7.56501L154.69 7.32501V5.69501H160.323V7.32501L159.1 7.56501Z" fill="#0500F4"/>
<path d="M163.604 21.195L163.894 19.085C163.894 19.085 166.985 19.685 169.483 19.685C171.33 19.685 173.488 19.685 173.488 17.235C173.488 14.74 172.359 14.955 169.747 14.785C166.151 14.545 163.275 14.615 163.275 10.275C163.275 6.53001 165.262 5.52501 169.508 5.52501C172.479 5.52501 175.141 6.12501 175.141 6.12501L174.806 8.21501C174.806 8.21501 172 7.66501 169.917 7.66501C168.049 7.66501 165.747 7.57001 165.747 9.97001C165.747 12.345 167.375 12.225 169.582 12.32C173.083 12.49 176.01 12.37 176.01 16.855C176.01 21.2 173.563 21.845 169.777 21.845C166.436 21.845 163.604 21.195 163.604 21.195Z" fill="#0500F4"/>
<path d="M63.3112 29.62C63.1664 29.655 63.1414 29.75 63.1414 29.835V36.675H60.6743L57.463 29.835C57.3931 29.665 57.3432 29.605 57.1883 29.605C56.9586 29.605 56.9386 29.725 56.9386 29.93V35.525C56.9386 35.61 56.9636 35.705 57.1084 35.74L57.7177 35.86V36.675H54.9959V35.86L55.6202 35.74C55.765 35.705 55.79 35.61 55.79 35.525V29.835C55.79 29.75 55.765 29.655 55.6202 29.62L54.9909 29.5V28.685H58.2771L61.4634 35.43C61.5333 35.585 61.5932 35.66 61.738 35.66C61.9678 35.66 61.9878 35.515 61.9878 35.325V29.835C61.9878 29.75 61.9628 29.655 61.818 29.62L61.1987 29.5V28.685H63.9305V29.5L63.3112 29.62Z" fill="#020050" fill-opacity="0.4"/>
<path d="M65.4637 36.675V35.86L66.088 35.74C66.2329 35.705 66.2578 35.61 66.2578 35.525V29.835C66.2578 29.75 66.2329 29.655 66.088 29.62L65.4637 29.5V28.685H71.9013V29.755H67.5014V32.06H71.7564V33.105H67.5014V35.615H71.9013V36.685H65.4637V36.675Z" fill="#020050" fill-opacity="0.4"/>
<path d="M76.7805 29.765V35.525C76.7805 35.61 76.8055 35.705 76.9503 35.74L77.5746 35.86V36.675H74.7479V35.86L75.3722 35.74C75.517 35.705 75.542 35.61 75.542 35.525V29.765H72.5554V28.685H79.772V29.765H76.7805Z" fill="#020050" fill-opacity="0.4"/>
<path d="M93.2963 29.645C93.0915 29.695 93.0316 29.74 92.9717 29.935L91.1838 36.68H88.7516L87.2034 29.745C87.1784 29.625 87.1185 29.53 86.9737 29.53C86.8438 29.53 86.7839 29.625 86.7589 29.735L85.2507 36.685H82.8035L81.0306 29.94C80.9807 29.75 80.9107 29.7 80.721 29.65L80.1317 29.52V28.69H82.9833V29.5L82.4689 29.61C82.2991 29.645 82.3141 29.755 82.3491 29.9L83.6675 35.31C83.7275 35.56 83.8124 35.695 84.0521 35.695C84.2918 35.695 84.3767 35.565 84.4366 35.31L85.805 28.685H88.1523L89.6256 35.31C89.6755 35.56 89.7554 35.695 89.9952 35.695C90.2449 35.695 90.3198 35.565 90.3797 35.31L91.6482 29.9C91.6732 29.755 91.6732 29.65 91.5034 29.61L90.999 29.5V28.685H93.8656V29.515L93.2963 29.645Z" fill="#020050" fill-opacity="0.4"/>
<path d="M98.4403 36.76C95.254 36.76 94.8944 35.885 94.8944 32.69C94.8944 29.26 95.3839 28.6 98.4303 28.6C101.632 28.6 101.956 29.465 101.956 32.69C101.951 35.92 101.617 36.76 98.4403 36.76ZM98.4253 29.645C96.3977 29.645 96.173 29.945 96.173 32.695C96.173 35.3 96.3428 35.705 98.4403 35.705C100.588 35.705 100.668 35.275 100.668 32.695C100.668 30.185 100.643 29.645 98.4253 29.645Z" fill="#020050" fill-opacity="0.4"/>
<path d="M105.477 35.525C105.477 35.61 105.502 35.705 105.647 35.74L106.256 35.86V36.675H103.44V35.86L104.064 35.74C104.209 35.705 104.234 35.61 104.234 35.525V29.835C104.234 29.75 104.209 29.655 104.064 29.62L103.44 29.5V28.685H108.284C110.132 28.685 110.751 29.275 110.751 30.93C110.751 31.615 110.581 32.13 110.247 32.5C109.937 32.85 109.467 33.005 109.013 33.05C108.843 33.075 108.703 33.1 108.703 33.29C108.703 33.385 108.753 33.445 108.813 33.53L110.107 35.44C110.252 35.655 110.396 35.69 110.656 35.75L111.126 35.86V36.675H109.363L107.864 34.42V33.185H105.477V35.525ZM109.228 30.03C109.038 29.85 108.663 29.74 107.859 29.74H105.472V32.14H107.859C108.663 32.14 109.033 32.02 109.228 31.85C109.443 31.635 109.458 31.32 109.458 30.94C109.453 30.57 109.443 30.245 109.228 30.03Z" fill="#020050" fill-opacity="0.4"/>
<path d="M119.965 29.5L119.356 29.67C119.166 29.72 119.056 29.765 118.926 29.9L116.145 32.625L119.151 35.445C119.401 35.685 119.426 35.71 119.726 35.77L120.155 35.855V36.685H117.193V35.87L117.543 35.81C117.663 35.785 117.773 35.76 117.773 35.62C117.773 35.55 117.723 35.49 117.678 35.45L115.436 33.35C115.281 33.22 115.126 33.06 114.906 33.06C114.606 33.06 114.522 33.23 114.522 33.505V35.535C114.522 35.62 114.547 35.715 114.691 35.75L115.301 35.87V36.685H112.484V35.87L113.108 35.75C113.253 35.715 113.278 35.62 113.278 35.535V29.835C113.278 29.75 113.253 29.655 113.108 29.62L112.489 29.5V28.685H115.306V29.5L114.696 29.62C114.552 29.655 114.527 29.75 114.527 29.835V31.85C114.527 32.125 114.611 32.295 114.911 32.295C115.126 32.295 115.296 32.15 115.441 32.005L117.598 29.87C117.648 29.82 117.668 29.785 117.668 29.715C117.668 29.595 117.583 29.56 117.478 29.545L117.144 29.495V28.68H119.97V29.5H119.965Z" fill="#020050" fill-opacity="0.4"/>
<path d="M30.6592 14.875C31.5432 14.875 32.2524 15.575 32.2524 16.44C32.2524 17.31 31.5432 18.005 30.6592 18.005C29.7753 18.005 29.0661 17.305 29.0661 16.44C29.0661 15.575 29.7753 14.875 30.6592 14.875Z" fill="#0500F4"/>
<path d="M32.8267 20.24C33.6294 20.24 34.28 19.5998 34.28 18.81C34.28 18.0202 33.6294 17.38 32.8267 17.38C32.0241 17.38 31.3734 18.0202 31.3734 18.81C31.3734 19.5998 32.0241 20.24 32.8267 20.24Z" fill="#0500F4"/>
<path d="M34.3649 20.325C35.0941 20.325 35.6834 20.905 35.6834 21.62C35.6834 22.335 35.0941 22.915 34.3649 22.915C33.6358 22.915 33.0465 22.335 33.0465 21.62C33.0515 20.905 33.6408 20.325 34.3649 20.325Z" fill="#0500F4"/>
<path d="M35.179 23.525C35.8382 23.525 36.3576 24.035 36.3576 24.685C36.3576 25.33 35.8382 25.845 35.179 25.845C34.5198 25.845 34.0004 25.335 34.0004 24.685C34.0054 24.055 34.5397 23.525 35.179 23.525Z" fill="#0500F4"/>
<path d="M35.2489 26.845C35.8182 26.845 36.2877 27.305 36.2877 27.865C36.2877 28.425 35.8182 28.885 35.2489 28.885C34.6796 28.885 34.2101 28.425 34.2101 27.865C34.2101 27.305 34.6796 26.845 35.2489 26.845Z" fill="#0500F4"/>
<path d="M34.5597 30.08C35.0641 30.08 35.4587 30.47 35.4587 30.965C35.4587 31.46 35.0592 31.85 34.5597 31.85C34.0603 31.85 33.6608 31.46 33.6608 30.965C33.6558 30.49 34.0553 30.08 34.5597 30.08Z" fill="#0500F4"/>
<path d="M33.1364 33.08C33.5509 33.08 33.9005 33.42 33.9005 33.83C33.9005 34.24 33.5559 34.58 33.1364 34.58C32.7218 34.58 32.3723 34.24 32.3723 33.83C32.3723 33.42 32.7218 33.08 33.1364 33.08Z" fill="#0500F4"/>
<path d="M31.698 36.28C31.698 36.62 31.4234 36.895 31.0738 36.895C30.7242 36.895 30.4495 36.625 30.4495 36.28C30.4495 35.94 30.7242 35.665 31.0738 35.665C31.4234 35.665 31.698 35.94 31.698 36.28Z" fill="#0500F4"/>
<path d="M30.5893 25.535C31.1437 26.2 31.0388 27.185 30.3446 27.73C29.6704 28.275 28.6666 28.175 28.1122 27.49C27.5579 26.825 27.6628 25.84 28.3569 25.295C29.0511 24.77 30.035 24.87 30.5893 25.535Z" fill="#0500F4"/>
<path d="M22.0893 32.16C21.8995 32.995 21.0305 33.52 20.1865 33.335C19.3375 33.15 18.8031 32.295 18.9929 31.46C19.1826 30.625 20.0516 30.1 20.8957 30.285C21.7397 30.475 22.279 31.325 22.0893 32.16Z" fill="#0500F4"/>
<path d="M11.5266 29.725C10.7275 30.1 9.77859 29.775 9.39404 29.01C9.01448 28.225 9.3441 27.29 10.1232 26.915C10.9223 26.54 11.8712 26.865 12.2557 27.63C12.6502 28.415 12.3206 29.35 11.5266 29.725Z" fill="#0500F4"/>
<path d="M6.86696 20.085C6.06789 19.71 5.74327 18.775 6.13781 17.99C6.51737 17.205 7.47126 16.885 8.27033 17.275C9.0694 17.65 9.39402 18.585 8.99948 19.37C8.59994 20.14 7.64605 20.46 6.86696 20.085Z" fill="#0500F4"/>
<path d="M11.6264 10.5001C11.4367 9.66507 11.9561 8.81507 12.8201 8.62507C13.6691 8.44007 14.5331 8.95007 14.7228 9.80007C14.9126 10.6351 14.3932 11.4851 13.5292 11.6751C12.6852 11.8801 11.8212 11.3501 11.6264 10.5001Z" fill="#0500F4"/>
<path d="M22.2291 8.17008C22.7834 7.50508 23.7873 7.38508 24.4615 7.93008C25.1357 8.47508 25.2605 9.46008 24.7062 10.1251C24.1518 10.7901 23.148 10.9101 22.4738 10.3651C21.7746 9.83508 21.6747 8.85008 22.2291 8.17008Z" fill="#0500F4"/>
<path d="M29.9501 28.755C30.4545 29.37 30.3646 30.27 29.7403 30.765C29.1161 31.26 28.1971 31.175 27.6977 30.56C27.1933 29.945 27.2832 29.045 27.9075 28.55C28.5317 28.055 29.4507 28.14 29.9501 28.755Z" fill="#0500F4"/>
<path d="M19.1277 33.675C18.9529 34.44 18.1588 34.92 17.3797 34.75C16.6006 34.58 16.1162 33.795 16.291 33.03C16.4658 32.265 17.2599 31.785 18.039 31.955C18.8131 32.14 19.3025 32.91 19.1277 33.675Z" fill="#0500F4"/>
<path d="M8.47509 28.395C7.74593 28.735 6.88194 28.445 6.53734 27.73C6.19274 27.015 6.4874 26.165 7.21156 25.825C7.94071 25.485 8.8047 25.775 9.1493 26.49C9.49889 27.185 9.20424 28.04 8.47509 28.395Z" fill="#0500F4"/>
<path d="M6.01795 16.905C5.2888 16.565 4.99414 15.695 5.34373 15C5.68833 14.285 6.5723 13.995 7.28148 14.335C8.01063 14.675 8.30528 15.545 7.95569 16.24C7.61109 16.955 6.7471 17.26 6.01795 16.905Z" fill="#0500F4"/>
<path d="M13.6191 7.88008C13.4443 7.11508 13.9288 6.35008 14.7079 6.16008C15.487 5.99008 16.266 6.46508 16.4558 7.23508C16.6306 8.00008 16.1462 8.76508 15.3671 8.95508C14.588 9.12008 13.8089 8.64508 13.6191 7.88008Z" fill="#0500F4"/>
<path d="M25.5702 8.08508C26.0746 7.47008 26.9885 7.37008 27.6128 7.88008C28.2371 8.37508 28.3419 9.27508 27.8226 9.89008C27.3181 10.5051 26.4042 10.6051 25.7799 10.0951C25.1557 9.58008 25.0508 8.69508 25.5702 8.08508Z" fill="#0500F4"/>
<path d="M28.5816 31.765C29.0311 32.325 28.9462 33.145 28.3919 33.585C27.8225 34.03 27.0085 33.945 26.539 33.4C26.0896 32.84 26.1745 32.04 26.7288 31.58C27.3031 31.135 28.1322 31.22 28.5816 31.765Z" fill="#0500F4"/>
<path d="M15.8715 34.49C15.7166 35.19 15.0075 35.615 14.2933 35.46C13.5841 35.305 13.1496 34.61 13.3045 33.91C13.4593 33.21 14.1684 32.785 14.8826 32.94C15.5918 33.095 16.0463 33.795 15.8715 34.49Z" fill="#0500F4"/>
<path d="M5.7932 26.405C5.13397 26.71 4.35487 26.455 4.02526 25.81C3.71562 25.165 3.97532 24.395 4.62955 24.075C5.28879 23.77 6.06788 24.025 6.3975 24.67C6.72711 25.315 6.45243 26.08 5.7932 26.405Z" fill="#0500F4"/>
<path d="M5.93306 13.6151C5.27382 13.3101 5.01413 12.5251 5.32876 11.8801C5.6384 11.2351 6.43747 10.9801 7.0967 11.2851C7.75593 11.5901 8.01563 12.3751 7.701 13.0201C7.36639 13.6501 6.58729 13.9251 5.93306 13.6151Z" fill="#0500F4"/>
<path d="M16.2011 5.75C16.0463 5.05 16.4758 4.355 17.19 4.2C17.8991 4.045 18.6083 4.47 18.7681 5.17C18.9229 5.87 18.4934 6.565 17.7793 6.72C17.0651 6.89 16.3559 6.45 16.2011 5.75Z" fill="#0500F4"/>
<path d="M28.8614 8.73008C29.3108 8.17008 30.1449 8.08508 30.7142 8.54508C31.2835 8.99008 31.3734 9.80508 30.904 10.3651C30.4545 10.9251 29.6205 11.0101 29.0511 10.5501C28.4768 10.0901 28.3919 9.27508 28.8614 8.73008Z" fill="#0500F4"/>
<path d="M26.5391 34.405C26.9536 34.9 26.8687 35.63 26.3643 36.04C25.8599 36.45 25.1157 36.365 24.7012 35.87C24.2867 35.375 24.3716 34.645 24.876 34.235C25.3954 33.825 26.1395 33.91 26.5391 34.405Z" fill="#0500F4"/>
<path d="M12.5104 34.56C12.3706 35.19 11.7313 35.565 11.0921 35.43C10.4528 35.295 10.0682 34.665 10.2081 34.035C10.3479 33.405 10.9872 33.015 11.6264 33.165C12.2507 33.315 12.6502 33.945 12.5104 34.56Z" fill="#0500F4"/>
<path d="M3.6457 23.865C3.05639 24.135 2.34721 23.9 2.06754 23.335C1.79286 22.755 2.03258 22.06 2.60192 21.785C3.19123 21.515 3.9004 21.75 4.18008 22.315C4.47473 22.88 4.21504 23.575 3.6457 23.865Z" fill="#0500F4"/>
<path d="M6.60728 10.3651C6.01797 10.0951 5.77825 9.39508 6.0729 8.81508C6.34758 8.23507 7.06175 8.00007 7.65106 8.28508C8.24038 8.55508 8.4801 9.25508 8.18544 9.83508C7.88579 10.4151 7.19659 10.6551 6.60728 10.3651Z" fill="#0500F4"/>
<path d="M19.1976 4.25C19.0578 3.62 19.4423 3.005 20.0816 2.855C20.7208 2.72 21.3451 3.095 21.4999 3.725C21.6397 4.355 21.2552 4.97 20.6159 5.12C19.9767 5.255 19.3324 4.865 19.1976 4.25Z" fill="#0500F4"/>
<path d="M31.9228 10.0901C32.3373 9.59508 33.0814 9.51008 33.5858 9.92008C34.0902 10.3301 34.1751 11.0601 33.7606 11.5551C33.3461 12.0501 32.602 12.1351 32.0976 11.7251C31.5782 11.3201 31.5083 10.5851 31.9228 10.0901Z" fill="#0500F4"/>
<path d="M23.9421 36.535C24.3067 36.98 24.2367 37.625 23.7873 37.98C23.3378 38.34 22.6786 38.27 22.314 37.825C21.9494 37.38 22.0193 36.735 22.4688 36.38C22.9383 36.025 23.5975 36.09 23.9421 36.535Z" fill="#0500F4"/>
<path d="M9.20422 33.895C9.08436 34.44 8.51003 34.795 7.95567 34.66C7.40132 34.54 7.03674 33.98 7.17658 33.435C7.29644 32.89 7.87077 32.535 8.42513 32.67C8.97948 32.79 9.32408 33.335 9.20422 33.895Z" fill="#0500F4"/>
<path d="M2.12249 20.905C1.60309 21.16 0.978819 20.94 0.739098 20.43C0.479401 19.92 0.704139 19.305 1.22353 19.07C1.74293 18.815 2.3672 19.035 2.60692 19.545C2.84664 20.035 2.64188 20.65 2.12249 20.905Z" fill="#0500F4"/>
<path d="M8.01064 7.34999C7.49124 7.09499 7.28148 6.47999 7.5262 5.98999C7.7859 5.47999 8.41017 5.27499 8.90959 5.51499C9.42899 5.76999 9.63874 6.38499 9.39403 6.87499C9.1543 7.38499 8.53003 7.60499 8.01064 7.34999Z" fill="#0500F4"/>
<path d="M22.4688 3.44999C22.349 2.90499 22.6936 2.34499 23.2479 2.22499C23.8023 2.10499 24.3716 2.44499 24.4964 2.98999C24.6163 3.53499 24.2717 4.09499 23.7174 4.21499C23.163 4.33499 22.5887 3.99499 22.4688 3.44999Z" fill="#0500F4"/>
<path d="M34.5897 12.1201C34.9543 11.6751 35.6135 11.6101 36.063 11.9651C36.5125 12.3251 36.5824 12.9701 36.2178 13.4101C35.8532 13.8551 35.194 13.9201 34.7445 13.5651C34.3 13.1901 34.2301 12.5451 34.5897 12.1201Z" fill="#0500F4"/>
<path d="M20.9456 38.015C21.2552 38.39 21.2053 38.95 20.8057 39.26C20.4262 39.565 19.8518 39.515 19.5422 39.125C19.2326 38.75 19.2825 38.19 19.682 37.865C20.0616 37.575 20.616 37.625 20.9456 38.015Z" fill="#0500F4"/>
<path d="M6.13782 32.5C6.03294 32.975 5.53352 33.285 5.04909 33.165C4.56465 33.065 4.25002 32.57 4.37487 32.09C4.47975 31.615 4.97917 31.305 5.46361 31.425C5.94804 31.545 6.25768 32.025 6.13782 32.5Z" fill="#0500F4"/>
<path d="M1.30844 17.685C0.858962 17.905 0.31959 17.72 0.0948519 17.275C-0.129886 16.83 0.0598927 16.305 0.509369 16.085C0.958846 15.865 1.49822 16.05 1.72296 16.495C1.94769 16.935 1.75791 17.465 1.30844 17.685Z" fill="#0500F4"/>
<path d="M10.0682 4.73C9.61876 4.51 9.42898 3.98 9.65372 3.54C9.87846 3.095 10.4178 2.91 10.8673 3.13C11.3168 3.35 11.5066 3.88 11.2818 4.32C11.0571 4.765 10.5177 4.95 10.0682 4.73Z" fill="#0500F4"/>
<path d="M25.8299 3.385C25.725 2.91 26.0196 2.43 26.5041 2.31C26.9885 2.21 27.4729 2.495 27.5928 2.975C27.6977 3.45 27.403 3.93 26.9186 4.05C26.4342 4.165 25.9497 3.875 25.8299 3.385Z" fill="#0500F4"/>
<path d="M36.7372 14.67C37.0468 14.295 37.6211 14.225 38.0007 14.535C38.3802 14.84 38.4502 15.405 38.1405 15.78C37.8309 16.155 37.2566 16.225 36.857 15.915C36.4775 15.61 36.4275 15.045 36.7372 14.67Z" fill="#0500F4"/>
<path d="M17.6744 38.78C17.9341 39.105 17.8842 39.58 17.5545 39.835C17.2249 40.09 16.7405 40.04 16.4808 39.715C16.2211 39.39 16.271 38.915 16.6007 38.66C16.9253 38.425 17.4147 38.46 17.6744 38.78Z" fill="#0500F4"/>
<path d="M3.4909 30.475C3.38602 30.885 2.98649 31.14 2.57197 31.035C2.15745 30.935 1.89776 30.54 2.00263 30.135C2.10751 29.725 2.50705 29.47 2.92156 29.575C3.33109 29.675 3.59078 30.065 3.4909 30.475Z" fill="#0500F4"/>
<path d="M1.27348 14.385C0.893917 14.57 0.424464 14.42 0.249668 14.045C0.0598889 13.67 0.214709 13.21 0.594266 13.04C0.973824 12.855 1.44328 13.005 1.61807 13.38C1.79287 13.755 1.65303 14.195 1.27348 14.385Z" fill="#0500F4"/>
<path d="M12.6652 2.635C12.2857 2.45 12.1308 2.005 12.3206 1.63C12.5104 1.255 12.9599 1.1 13.3444 1.29C13.724 1.475 13.8838 1.92 13.689 2.295C13.4992 2.67 13.0498 2.82 12.6652 2.635Z" fill="#0500F4"/>
<path d="M29.121 4.08C29.0162 3.67 29.2759 3.265 29.6904 3.18C30.1049 3.08 30.5194 3.335 30.6093 3.74C30.7142 4.15 30.4545 4.555 30.04 4.64C29.6205 4.745 29.2059 4.49 29.121 4.08Z" fill="#0500F4"/>
<path d="M38.2304 17.62C38.4901 17.295 38.9746 17.245 39.3042 17.5C39.6338 17.755 39.6837 18.23 39.424 18.555C39.1643 18.88 38.6799 18.93 38.3503 18.675C38.0207 18.42 37.9707 17.94 38.2304 17.62Z" fill="#0500F4"/>
<path d="M14.2434 39.685C13.9687 39.905 13.5692 39.855 13.3594 39.6C13.1347 39.33 13.1846 38.935 13.4443 38.73C13.719 38.51 14.1185 38.56 14.3283 38.815C14.553 39.09 14.5231 39.48 14.2434 39.685Z" fill="#0500F4"/>
<path d="M0.629208 28.395C0.28461 28.31 0.0748541 27.985 0.159755 27.645C0.244656 27.305 0.574272 27.1 0.923865 27.185C1.26846 27.27 1.47822 27.595 1.39332 27.935C1.30842 28.26 0.978801 28.465 0.629208 28.395Z" fill="#0500F4"/>
<path d="M1.13365 10.8901C0.978827 10.5851 1.11866 10.2101 1.4283 10.0551C1.73794 9.90008 2.12249 10.0401 2.27731 10.3451C2.43213 10.6501 2.2923 11.0251 1.98266 11.1801C1.67302 11.3351 1.28847 11.2001 1.13365 10.8901Z" fill="#0500F4"/>
<path d="M15.367 0.354997C15.5219 0.0499973 15.9064 -0.0900027 16.2161 0.0649973C16.5257 0.219997 16.6655 0.594997 16.5107 0.899997C16.3559 1.205 15.9763 1.345 15.6617 1.19C15.3521 1.035 15.2122 0.674997 15.367 0.354997Z" fill="#0500F4"/>
<path d="M32.617 4.74499C32.9616 4.65999 33.2912 4.87999 33.3811 5.20499C33.466 5.52999 33.2412 5.86999 32.9116 5.95499C32.567 6.03999 32.2374 5.81999 32.1475 5.49499C32.0626 5.15499 32.2724 4.81499 32.617 4.74499Z" fill="#0500F4"/>
<path d="M39.8935 20.735C40.1682 20.955 40.2031 21.35 39.9784 21.605C39.7537 21.875 39.3541 21.91 39.0944 21.69C38.8197 21.47 38.7848 21.075 39.0095 20.82C39.2143 20.565 39.6138 20.51 39.8935 20.735Z" fill="#0500F4"/>
</g>
<defs>
<clipPath id="clip0">
<rect width="176" height="40" fill="white"/>
</clipPath>
</defs>
</svg>
