<svg width="42" height="42" xmlns="http://www.w3.org/2000/svg"><g fill="#9DAFBD" fill-rule="evenodd"><path d="M31.66 15.875c.883 0 1.592.7 1.592 1.565 0 .87-.709 1.565-1.593 1.565s-1.593-.7-1.593-1.565.71-1.565 1.593-1.565z"/><path d="M33.827 21.24c.802 0 1.453-.64 1.453-1.43 0-.79-.65-1.43-1.453-1.43s-1.454.64-1.454 1.43c0 .79.651 1.43 1.454 1.43zm1.538.085c.73 0 1.318.58 1.318 1.295s-.589 1.295-1.318 1.295c-.73 0-1.319-.58-1.319-1.295a1.313 1.313 0 0 1 1.319-1.295zm.814 3.2c.66 0 1.179.51 1.179 1.16 0 .645-.52 1.16-1.179 1.16-.66 0-1.179-.51-1.179-1.16.005-.63.54-1.16 1.179-1.16zm.07 3.32c.57 0 1.039.46 1.039 1.02s-.47 1.02-1.04 1.02c-.568 0-1.038-.46-1.038-1.02s.47-1.02 1.039-1.02zm-.689 3.235c.504 0 .899.39.899.885s-.4.885-.9.885a.886.886 0 0 1-.898-.885.893.893 0 0 1 .899-.885zm-1.424 3c.415 0 .764.34.764.75s-.344.75-.764.75a.765.765 0 0 1-.764-.75c0-.41.35-.75.764-.75zm-1.438 3.2c0 .34-.275.615-.624.615a.613.613 0 0 1-.624-.615c0-.34.274-.615.624-.615s.624.275.624.615zM31.59 26.535c.554.665.449 1.65-.245 2.195a1.592 1.592 0 0 1-2.233-.24 1.532 1.532 0 0 1 .245-2.195 1.627 1.627 0 0 1 2.232.24zm-8.5 6.625c-.19.835-1.06 1.36-1.904 1.175a1.574 1.574 0 0 1-1.193-1.875c.19-.835 1.059-1.36 1.903-1.175a1.58 1.58 0 0 1 1.193 1.875zm-10.563-2.435c-.8.375-1.748.05-2.133-.715-.38-.785-.05-1.72.73-2.095.798-.375 1.747-.05 2.132.715a1.54 1.54 0 0 1-.73 2.095zm-4.66-9.64a1.536 1.536 0 0 1-.73-2.095c.38-.785 1.334-1.105 2.133-.715.8.375 1.124 1.31.73 2.095-.4.77-1.354 1.09-2.133.715zm4.759-9.585a1.565 1.565 0 0 1 1.194-1.875c.85-.185 1.713.325 1.903 1.175.19.835-.33 1.685-1.194 1.875a1.578 1.578 0 0 1-1.903-1.175zM23.23 9.17c.553-.665 1.557-.785 2.232-.24.674.545.799 1.53.244 2.195-.554.665-1.558.785-2.232.24-.7-.53-.8-1.515-.245-2.195z"/><path d="M30.95 29.755a1.412 1.412 0 0 1-.21 2.01c-.624.495-1.543.41-2.042-.205a1.412 1.412 0 0 1 .21-2.01c.624-.495 1.543-.41 2.042.205zm-10.822 4.92c-.175.765-.97 1.245-1.748 1.075a1.44 1.44 0 0 1-1.089-1.72c.175-.765.969-1.245 1.748-1.075.774.185 1.263.955 1.089 1.72zm-10.653-5.28c-.73.34-1.593.05-1.938-.665a1.414 1.414 0 0 1 .675-1.905c.729-.34 1.593-.05 1.937.665.35.695.055 1.55-.674 1.905zm-2.457-11.49A1.412 1.412 0 0 1 6.344 16c.344-.715 1.228-1.005 1.937-.665.73.34 1.024 1.21.675 1.905a1.444 1.444 0 0 1-1.938.665zM14.62 8.88c-.176-.765.309-1.53 1.088-1.72a1.473 1.473 0 0 1 1.748 1.075c.175.765-.31 1.53-1.089 1.72-.779.165-1.558-.31-1.748-1.075zm11.95.205a1.454 1.454 0 0 1 2.043-.205 1.4 1.4 0 0 1 .21 2.01 1.454 1.454 0 0 1-2.043.205c-.624-.515-.73-1.4-.21-2.01zm3.012 23.68c.45.56.364 1.38-.19 1.82-.57.445-1.383.36-1.853-.185-.45-.56-.365-1.36.19-1.82.574-.445 1.403-.36 1.853.185zM16.871 35.49c-.154.7-.864 1.125-1.578.97a1.294 1.294 0 0 1-.989-1.55c.155-.7.864-1.125 1.579-.97.709.155 1.163.855.988 1.55zM6.793 27.405a1.342 1.342 0 0 1-1.768-.595 1.297 1.297 0 0 1 .605-1.735 1.342 1.342 0 0 1 1.768.595c.33.645.054 1.41-.605 1.735zm.14-12.79a1.284 1.284 0 0 1-.604-1.735c.31-.645 1.108-.9 1.768-.595.659.305.919 1.09.604 1.735a1.354 1.354 0 0 1-1.768.595zM17.201 6.75a1.29 1.29 0 0 1 .989-1.55c.71-.155 1.418.27 1.578.97a1.29 1.29 0 0 1-.989 1.55 1.3 1.3 0 0 1-1.578-.97zm12.66 2.98a1.318 1.318 0 0 1 1.853-.185c.57.445.66 1.26.19 1.82-.45.56-1.284.645-1.853.185-.574-.46-.66-1.275-.19-1.82zM27.54 35.405a1.15 1.15 0 0 1-.176 1.635 1.195 1.195 0 0 1-1.663-.17 1.15 1.15 0 0 1 .175-1.635 1.192 1.192 0 0 1 1.663.17zm-14.03.155c-.14.63-.779 1.005-1.418.87a1.158 1.158 0 0 1-.884-1.395c.14-.63.78-1.02 1.418-.87.625.15 1.024.78.884 1.395zM4.646 24.865c-.59.27-1.299.035-1.578-.53a1.167 1.167 0 0 1 .534-1.55c.59-.27 1.298-.035 1.578.53.295.565.035 1.26-.534 1.55zm2.961-13.5a1.132 1.132 0 0 1-.534-1.55c.275-.58.989-.815 1.578-.53.59.27.83.97.534 1.55-.3.58-.988.82-1.578.53zM20.198 5.25c-.14-.63.244-1.245.884-1.395a1.189 1.189 0 0 1 1.418.87c.14.63-.245 1.245-.884 1.395-.64.135-1.284-.255-1.418-.87zm12.725 5.84a1.195 1.195 0 0 1 1.663-.17c.504.41.59 1.14.175 1.635a1.195 1.195 0 0 1-1.663.17 1.137 1.137 0 0 1-.175-1.635zm-7.981 26.445c.365.445.295 1.09-.155 1.445-.45.36-1.108.29-1.473-.155a1.013 1.013 0 0 1 .155-1.445c.47-.355 1.128-.29 1.473.155zm-14.738-2.64c-.12.545-.694.9-1.248.765-.555-.12-.92-.68-.78-1.225.12-.545.695-.9 1.25-.765.553.12.898.665.778 1.225zm-7.082-12.99a1.028 1.028 0 0 1-1.383-.475.996.996 0 0 1 .485-1.36 1.028 1.028 0 0 1 1.383.475c.24.49.035 1.105-.485 1.36zM9.01 8.35c-.519-.255-.729-.87-.484-1.36.26-.51.884-.715 1.384-.475.519.255.729.87.484 1.36-.24.51-.864.73-1.383.475zm14.459-3.9a1.031 1.031 0 0 1 .779-1.225c.554-.12 1.124.22 1.248.765a1.03 1.03 0 0 1-.779 1.225c-.554.12-1.128-.22-1.248-.765zm12.121 8.67a1.06 1.06 0 0 1 1.473-.155c.45.36.52 1.005.155 1.445a1.06 1.06 0 0 1-1.474.155c-.444-.375-.514-1.02-.154-1.445zM21.946 39.015c.31.375.26.935-.14 1.245a.902.902 0 0 1-1.264-.135.887.887 0 0 1 .14-1.26.92.92 0 0 1 1.264.15zM7.138 33.5a.901.901 0 0 1-1.089.665.882.882 0 0 1-.674-1.075.901.901 0 0 1 1.089-.665c.484.12.794.6.674 1.075zm-4.83-14.815a.91.91 0 0 1-1.213-.41.878.878 0 0 1 .414-1.19.91.91 0 0 1 1.214.41.88.88 0 0 1-.415 1.19zm8.76-12.955a.88.88 0 0 1-.414-1.19.91.91 0 0 1 1.213-.41c.45.22.64.75.415 1.19a.91.91 0 0 1-1.214.41zM26.83 4.385a.91.91 0 0 1 .674-1.075.92.92 0 0 1 1.089.665.91.91 0 0 1-.674 1.075.9.9 0 0 1-1.09-.665zM37.737 15.67a.91.91 0 0 1 1.264-.135c.38.305.45.87.14 1.245a.933.933 0 0 1-1.284.135.883.883 0 0 1-.12-1.245zM18.674 39.78c.26.325.21.8-.12 1.055a.776.776 0 0 1-1.073-.12.744.744 0 0 1 .12-1.055c.324-.235.814-.2 1.073.12zM4.49 31.475a.755.755 0 0 1-.918.56c-.415-.1-.674-.495-.57-.9a.755.755 0 0 1 .92-.56c.41.1.669.49.569.9zm-2.217-16.09c-.38.185-.849.035-1.023-.34a.735.735 0 0 1 .344-1.005c.38-.185.85-.035 1.024.34a.753.753 0 0 1-.345 1.005zm11.392-11.75a.74.74 0 0 1-.344-1.005.761.761 0 0 1 1.023-.34c.38.185.54.63.345 1.005a.765.765 0 0 1-1.024.34zM30.121 5.08a.732.732 0 0 1 .57-.9c.414-.1.828.155.918.56a.732.732 0 0 1-.569.9.744.744 0 0 1-.919-.56zm9.109 13.54a.776.776 0 0 1 1.074-.12c.33.255.38.73.12 1.055a.776.776 0 0 1-1.074.12.745.745 0 0 1-.12-1.055zM15.243 40.685a.639.639 0 0 1-.884-.085.613.613 0 0 1 .085-.87.639.639 0 0 1 .884.085c.225.275.195.665-.085.87zM1.63 29.395c-.345-.085-.555-.41-.47-.75a.623.623 0 0 1 .764-.46c.344.085.554.41.47.75a.647.647 0 0 1-.765.46zm.504-17.505c-.155-.305-.015-.68.294-.835a.644.644 0 0 1 .85.29c.154.305.014.68-.295.835a.64.64 0 0 1-.85-.29zM16.367 1.355a.644.644 0 0 1 .85-.29c.309.155.449.53.294.835a.642.642 0 0 1-.85.29.623.623 0 0 1-.294-.835zm17.25 4.39a.64.64 0 0 1 .764.46c.085.325-.14.665-.47.75a.64.64 0 0 1-.764-.46.61.61 0 0 1 .47-.75zm7.277 15.99c.274.22.31.615.084.87a.627.627 0 0 1-.884.085.603.603 0 0 1-.084-.87.633.633 0 0 1 .884-.085z"/></g></svg>