<?xml version="1.0" encoding="UTF-8"?>
<svg width="42px" height="42px" viewBox="0 0 42 42" version="1.1" xmlns="http://www.w3.org/2000/svg" xmlns:xlink="http://www.w3.org/1999/xlink">
    <!-- Generator: Sketch 52.6 (67491) - http://www.bohemiancoding.com/sketch -->
    <title>Logo</title>
    <desc>Created with Sketch.</desc>
    <g id="Page-1" stroke="none" stroke-width="1" fill="none" fill-rule="evenodd">
        <g id="Logo" transform="translate(1.000000, 1.000000)" fill="#9DAFBD">
            <path d="M30.6592,14.875 C31.5432,14.875 32.2524,15.575 32.2524,16.44 C32.2524,17.31 31.5432,18.005 30.6592,18.005 C29.7753,18.005 29.0661,17.305 29.0661,16.44 C29.0661,15.575 29.7753,14.875 30.6592,14.875 Z" id="Path"></path>
            <path d="M32.8267,20.24 C33.6294,20.24 34.28,19.5998 34.28,18.81 C34.28,18.0202 33.6294,17.38 32.8267,17.38 C32.0241,17.38 31.3734,18.0202 31.3734,18.81 C31.3734,19.5998 32.0241,20.24 32.8267,20.24 Z" id="Path"></path>
            <path d="M34.3649,20.325 C35.0941,20.325 35.6834,20.905 35.6834,21.62 C35.6834,22.335 35.0941,22.915 34.3649,22.915 C33.6358,22.915 33.0465,22.335 33.0465,21.62 C33.0515,20.905 33.6408,20.325 34.3649,20.325 Z" id="Path"></path>
            <path d="M35.179,23.525 C35.8382,23.525 36.3576,24.035 36.3576,24.685 C36.3576,25.33 35.8382,25.845 35.179,25.845 C34.5198,25.845 34.0004,25.335 34.0004,24.685 C34.0054,24.055 34.5397,23.525 35.179,23.525 Z" id="Path"></path>
            <path d="M35.2489,26.845 C35.8182,26.845 36.2877,27.305 36.2877,27.865 C36.2877,28.425 35.8182,28.885 35.2489,28.885 C34.6796,28.885 34.2101,28.425 34.2101,27.865 C34.2101,27.305 34.6796,26.845 35.2489,26.845 Z" id="Path"></path>
            <path d="M34.5597,30.08 C35.0641,30.08 35.4587,30.47 35.4587,30.965 C35.4587,31.46 35.0592,31.85 34.5597,31.85 C34.0603,31.85 33.6608,31.46 33.6608,30.965 C33.6558,30.49 34.0553,30.08 34.5597,30.08 Z" id="Path"></path>
            <path d="M33.1364,33.08 C33.5509,33.08 33.9005,33.42 33.9005,33.83 C33.9005,34.24 33.5559,34.58 33.1364,34.58 C32.7218,34.58 32.3723,34.24 32.3723,33.83 C32.3723,33.42 32.7218,33.08 33.1364,33.08 Z" id="Path"></path>
            <path d="M31.698,36.28 C31.698,36.62 31.4234,36.895 31.0738,36.895 C30.7242,36.895 30.4495,36.625 30.4495,36.28 C30.4495,35.94 30.7242,35.665 31.0738,35.665 C31.4234,35.665 31.698,35.94 31.698,36.28 Z" id="Path"></path>
            <path d="M30.5893,25.535 C31.1437,26.2 31.0388,27.185 30.3446,27.73 C29.6704,28.275 28.6666,28.175 28.1122,27.49 C27.5579,26.825 27.6628,25.84 28.3569,25.295 C29.0511,24.77 30.035,24.87 30.5893,25.535 Z" id="Path"></path>
            <path d="M22.0893,32.16 C21.8995,32.995 21.0305,33.52 20.1865,33.335 C19.3375,33.15 18.8031,32.295 18.9929,31.46 C19.1826,30.625 20.0516,30.1 20.8957,30.285 C21.7397,30.475 22.279,31.325 22.0893,32.16 Z" id="Path"></path>
            <path d="M11.5266,29.725 C10.7275,30.1 9.77859,29.775 9.39404,29.01 C9.01448,28.225 9.3441,27.29 10.1232,26.915 C10.9223,26.54 11.8712,26.865 12.2557,27.63 C12.6502,28.415 12.3206,29.35 11.5266,29.725 Z" id="Path"></path>
            <path d="M6.86696,20.085 C6.06789,19.71 5.74327,18.775 6.13781,17.99 C6.51737,17.205 7.47126,16.885 8.27033,17.275 C9.0694,17.65 9.39402,18.585 8.99948,19.37 C8.59994,20.14 7.64605,20.46 6.86696,20.085 Z" id="Path"></path>
            <path d="M11.6264,10.5001 C11.4367,9.66507 11.9561,8.81507 12.8201,8.62507 C13.6691,8.44007 14.5331,8.95007 14.7228,9.80007 C14.9126,10.6351 14.3932,11.4851 13.5292,11.6751 C12.6852,11.8801 11.8212,11.3501 11.6264,10.5001 Z" id="Path"></path>
            <path d="M22.2291,8.17008 C22.7834,7.50508 23.7873,7.38508 24.4615,7.93008 C25.1357,8.47508 25.2605,9.46008 24.7062,10.1251 C24.1518,10.7901 23.148,10.9101 22.4738,10.3651 C21.7746,9.83508 21.6747,8.85008 22.2291,8.17008 Z" id="Path"></path>
            <path d="M29.9501,28.755 C30.4545,29.37 30.3646,30.27 29.7403,30.765 C29.1161,31.26 28.1971,31.175 27.6977,30.56 C27.1933,29.945 27.2832,29.045 27.9075,28.55 C28.5317,28.055 29.4507,28.14 29.9501,28.755 Z" id="Path"></path>
            <path d="M19.1277,33.675 C18.9529,34.44 18.1588,34.92 17.3797,34.75 C16.6006,34.58 16.1162,33.795 16.291,33.03 C16.4658,32.265 17.2599,31.785 18.039,31.955 C18.8131,32.14 19.3025,32.91 19.1277,33.675 Z" id="Path"></path>
            <path d="M8.47509,28.395 C7.74593,28.735 6.88194,28.445 6.53734,27.73 C6.19274,27.015 6.4874,26.165 7.21156,25.825 C7.94071,25.485 8.8047,25.775 9.1493,26.49 C9.49889,27.185 9.20424,28.04 8.47509,28.395 Z" id="Path"></path>
            <path d="M6.01795,16.905 C5.2888,16.565 4.99414,15.695 5.34373,15 C5.68833,14.285 6.5723,13.995 7.28148,14.335 C8.01063,14.675 8.30528,15.545 7.95569,16.24 C7.61109,16.955 6.7471,17.26 6.01795,16.905 Z" id="Path"></path>
            <path d="M13.6191,7.88008 C13.4443,7.11508 13.9288,6.35008 14.7079,6.16008 C15.487,5.99008 16.266,6.46508 16.4558,7.23508 C16.6306,8.00008 16.1462,8.76508 15.3671,8.95508 C14.588,9.12008 13.8089,8.64508 13.6191,7.88008 Z" id="Path"></path>
            <path d="M25.5702,8.08508 C26.0746,7.47008 26.9885,7.37008 27.6128,7.88008 C28.2371,8.37508 28.3419,9.27508 27.8226,9.89008 C27.3181,10.5051 26.4042,10.6051 25.7799,10.0951 C25.1557,9.58008 25.0508,8.69508 25.5702,8.08508 Z" id="Path"></path>
            <path d="M28.5816,31.765 C29.0311,32.325 28.9462,33.145 28.3919,33.585 C27.8225,34.03 27.0085,33.945 26.539,33.4 C26.0896,32.84 26.1745,32.04 26.7288,31.58 C27.3031,31.135 28.1322,31.22 28.5816,31.765 Z" id="Path"></path>
            <path d="M15.8715,34.49 C15.7166,35.19 15.0075,35.615 14.2933,35.46 C13.5841,35.305 13.1496,34.61 13.3045,33.91 C13.4593,33.21 14.1684,32.785 14.8826,32.94 C15.5918,33.095 16.0463,33.795 15.8715,34.49 Z" id="Path"></path>
            <path d="M5.7932,26.405 C5.13397,26.71 4.35487,26.455 4.02526,25.81 C3.71562,25.165 3.97532,24.395 4.62955,24.075 C5.28879,23.77 6.06788,24.025 6.3975,24.67 C6.72711,25.315 6.45243,26.08 5.7932,26.405 Z" id="Path"></path>
            <path d="M5.93306,13.6151 C5.27382,13.3101 5.01413,12.5251 5.32876,11.8801 C5.6384,11.2351 6.43747,10.9801 7.0967,11.2851 C7.75593,11.5901 8.01563,12.3751 7.701,13.0201 C7.36639,13.6501 6.58729,13.9251 5.93306,13.6151 Z" id="Path"></path>
            <path d="M16.2011,5.75 C16.0463,5.05 16.4758,4.355 17.19,4.2 C17.8991,4.045 18.6083,4.47 18.7681,5.17 C18.9229,5.87 18.4934,6.565 17.7793,6.72 C17.0651,6.89 16.3559,6.45 16.2011,5.75 Z" id="Path"></path>
            <path d="M28.8614,8.73008 C29.3108,8.17008 30.1449,8.08508 30.7142,8.54508 C31.2835,8.99008 31.3734,9.80508 30.904,10.3651 C30.4545,10.9251 29.6205,11.0101 29.0511,10.5501 C28.4768,10.0901 28.3919,9.27508 28.8614,8.73008 Z" id="Path"></path>
            <path d="M26.5391,34.405 C26.9536,34.9 26.8687,35.63 26.3643,36.04 C25.8599,36.45 25.1157,36.365 24.7012,35.87 C24.2867,35.375 24.3716,34.645 24.876,34.235 C25.3954,33.825 26.1395,33.91 26.5391,34.405 Z" id="Path"></path>
            <path d="M12.5104,34.56 C12.3706,35.19 11.7313,35.565 11.0921,35.43 C10.4528,35.295 10.0682,34.665 10.2081,34.035 C10.3479,33.405 10.9872,33.015 11.6264,33.165 C12.2507,33.315 12.6502,33.945 12.5104,34.56 Z" id="Path"></path>
            <path d="M3.6457,23.865 C3.05639,24.135 2.34721,23.9 2.06754,23.335 C1.79286,22.755 2.03258,22.06 2.60192,21.785 C3.19123,21.515 3.9004,21.75 4.18008,22.315 C4.47473,22.88 4.21504,23.575 3.6457,23.865 Z" id="Path"></path>
            <path d="M6.60728,10.3651 C6.01797,10.0951 5.77825,9.39508 6.0729,8.81508 C6.34758,8.23507 7.06175,8.00007 7.65106,8.28508 C8.24038,8.55508 8.4801,9.25508 8.18544,9.83508 C7.88579,10.4151 7.19659,10.6551 6.60728,10.3651 Z" id="Path"></path>
            <path d="M19.1976,4.25 C19.0578,3.62 19.4423,3.005 20.0816,2.855 C20.7208,2.72 21.3451,3.095 21.4999,3.725 C21.6397,4.355 21.2552,4.97 20.6159,5.12 C19.9767,5.255 19.3324,4.865 19.1976,4.25 Z" id="Path"></path>
            <path d="M31.9228,10.0901 C32.3373,9.59508 33.0814,9.51008 33.5858,9.92008 C34.0902,10.3301 34.1751,11.0601 33.7606,11.5551 C33.3461,12.0501 32.602,12.1351 32.0976,11.7251 C31.5782,11.3201 31.5083,10.5851 31.9228,10.0901 Z" id="Path"></path>
            <path d="M23.9421,36.535 C24.3067,36.98 24.2367,37.625 23.7873,37.98 C23.3378,38.34 22.6786,38.27 22.314,37.825 C21.9494,37.38 22.0193,36.735 22.4688,36.38 C22.9383,36.025 23.5975,36.09 23.9421,36.535 Z" id="Path"></path>
            <path d="M9.20422,33.895 C9.08436,34.44 8.51003,34.795 7.95567,34.66 C7.40132,34.54 7.03674,33.98 7.17658,33.435 C7.29644,32.89 7.87077,32.535 8.42513,32.67 C8.97948,32.79 9.32408,33.335 9.20422,33.895 Z" id="Path"></path>
            <path d="M2.12249,20.905 C1.60309,21.16 0.978819,20.94 0.739098,20.43 C0.479401,19.92 0.704139,19.305 1.22353,19.07 C1.74293,18.815 2.3672,19.035 2.60692,19.545 C2.84664,20.035 2.64188,20.65 2.12249,20.905 Z" id="Path"></path>
            <path d="M8.01064,7.34999 C7.49124,7.09499 7.28148,6.47999 7.5262,5.98999 C7.7859,5.47999 8.41017,5.27499 8.90959,5.51499 C9.42899,5.76999 9.63874,6.38499 9.39403,6.87499 C9.1543,7.38499 8.53003,7.60499 8.01064,7.34999 Z" id="Path"></path>
            <path d="M22.4688,3.44999 C22.349,2.90499 22.6936,2.34499 23.2479,2.22499 C23.8023,2.10499 24.3716,2.44499 24.4964,2.98999 C24.6163,3.53499 24.2717,4.09499 23.7174,4.21499 C23.163,4.33499 22.5887,3.99499 22.4688,3.44999 Z" id="Path"></path>
            <path d="M34.5897,12.1201 C34.9543,11.6751 35.6135,11.6101 36.063,11.9651 C36.5125,12.3251 36.5824,12.9701 36.2178,13.4101 C35.8532,13.8551 35.194,13.9201 34.7445,13.5651 C34.3,13.1901 34.2301,12.5451 34.5897,12.1201 Z" id="Path"></path>
            <path d="M20.9456,38.015 C21.2552,38.39 21.2053,38.95 20.8057,39.26 C20.4262,39.565 19.8518,39.515 19.5422,39.125 C19.2326,38.75 19.2825,38.19 19.682,37.865 C20.0616,37.575 20.616,37.625 20.9456,38.015 Z" id="Path"></path>
            <path d="M6.13782,32.5 C6.03294,32.975 5.53352,33.285 5.04909,33.165 C4.56465,33.065 4.25002,32.57 4.37487,32.09 C4.47975,31.615 4.97917,31.305 5.46361,31.425 C5.94804,31.545 6.25768,32.025 6.13782,32.5 Z" id="Path"></path>
            <path d="M1.30844,17.685 C0.858962,17.905 0.31959,17.72 0.0948519,17.275 C-0.129886,16.83 0.0598927,16.305 0.509369,16.085 C0.958846,15.865 1.49822,16.05 1.72296,16.495 C1.94769,16.935 1.75791,17.465 1.30844,17.685 Z" id="Path"></path>
            <path d="M10.0682,4.73 C9.61876,4.51 9.42898,3.98 9.65372,3.54 C9.87846,3.095 10.4178,2.91 10.8673,3.13 C11.3168,3.35 11.5066,3.88 11.2818,4.32 C11.0571,4.765 10.5177,4.95 10.0682,4.73 Z" id="Path"></path>
            <path d="M25.8299,3.385 C25.725,2.91 26.0196,2.43 26.5041,2.31 C26.9885,2.21 27.4729,2.495 27.5928,2.975 C27.6977,3.45 27.403,3.93 26.9186,4.05 C26.4342,4.165 25.9497,3.875 25.8299,3.385 Z" id="Path"></path>
            <path d="M36.7372,14.67 C37.0468,14.295 37.6211,14.225 38.0007,14.535 C38.3802,14.84 38.4502,15.405 38.1405,15.78 C37.8309,16.155 37.2566,16.225 36.857,15.915 C36.4775,15.61 36.4275,15.045 36.7372,14.67 Z" id="Path"></path>
            <path d="M17.6744,38.78 C17.9341,39.105 17.8842,39.58 17.5545,39.835 C17.2249,40.09 16.7405,40.04 16.4808,39.715 C16.2211,39.39 16.271,38.915 16.6007,38.66 C16.9253,38.425 17.4147,38.46 17.6744,38.78 Z" id="Path"></path>
            <path d="M3.4909,30.475 C3.38602,30.885 2.98649,31.14 2.57197,31.035 C2.15745,30.935 1.89776,30.54 2.00263,30.135 C2.10751,29.725 2.50705,29.47 2.92156,29.575 C3.33109,29.675 3.59078,30.065 3.4909,30.475 Z" id="Path"></path>
            <path d="M1.27348,14.385 C0.893917,14.57 0.424464,14.42 0.249668,14.045 C0.0598889,13.67 0.214709,13.21 0.594266,13.04 C0.973824,12.855 1.44328,13.005 1.61807,13.38 C1.79287,13.755 1.65303,14.195 1.27348,14.385 Z" id="Path"></path>
            <path d="M12.6652,2.635 C12.2857,2.45 12.1308,2.005 12.3206,1.63 C12.5104,1.255 12.9599,1.1 13.3444,1.29 C13.724,1.475 13.8838,1.92 13.689,2.295 C13.4992,2.67 13.0498,2.82 12.6652,2.635 Z" id="Path"></path>
            <path d="M29.121,4.08 C29.0162,3.67 29.2759,3.265 29.6904,3.18 C30.1049,3.08 30.5194,3.335 30.6093,3.74 C30.7142,4.15 30.4545,4.555 30.04,4.64 C29.6205,4.745 29.2059,4.49 29.121,4.08 Z" id="Path"></path>
            <path d="M38.2304,17.62 C38.4901,17.295 38.9746,17.245 39.3042,17.5 C39.6338,17.755 39.6837,18.23 39.424,18.555 C39.1643,18.88 38.6799,18.93 38.3503,18.675 C38.0207,18.42 37.9707,17.94 38.2304,17.62 Z" id="Path"></path>
            <path d="M14.2434,39.685 C13.9687,39.905 13.5692,39.855 13.3594,39.6 C13.1347,39.33 13.1846,38.935 13.4443,38.73 C13.719,38.51 14.1185,38.56 14.3283,38.815 C14.553,39.09 14.5231,39.48 14.2434,39.685 Z" id="Path"></path>
            <path d="M0.629208,28.395 C0.28461,28.31 0.0748541,27.985 0.159755,27.645 C0.244656,27.305 0.574272,27.1 0.923865,27.185 C1.26846,27.27 1.47822,27.595 1.39332,27.935 C1.30842,28.26 0.978801,28.465 0.629208,28.395 Z" id="Path"></path>
            <path d="M1.13365,10.8901 C0.978827,10.5851 1.11866,10.2101 1.4283,10.0551 C1.73794,9.90008 2.12249,10.0401 2.27731,10.3451 C2.43213,10.6501 2.2923,11.0251 1.98266,11.1801 C1.67302,11.3351 1.28847,11.2001 1.13365,10.8901 Z" id="Path"></path>
            <path d="M15.367,0.354997 C15.5219,0.0499973 15.9064,-0.0900027 16.2161,0.0649973 C16.5257,0.219997 16.6655,0.594997 16.5107,0.899997 C16.3559,1.205 15.9763,1.345 15.6617,1.19 C15.3521,1.035 15.2122,0.674997 15.367,0.354997 Z" id="Path"></path>
            <path d="M32.617,4.74499 C32.9616,4.65999 33.2912,4.87999 33.3811,5.20499 C33.466,5.52999 33.2412,5.86999 32.9116,5.95499 C32.567,6.03999 32.2374,5.81999 32.1475,5.49499 C32.0626,5.15499 32.2724,4.81499 32.617,4.74499 Z" id="Path"></path>
            <path d="M39.8935,20.735 C40.1682,20.955 40.2031,21.35 39.9784,21.605 C39.7537,21.875 39.3541,21.91 39.0944,21.69 C38.8197,21.47 38.7848,21.075 39.0095,20.82 C39.2143,20.565 39.6138,20.51 39.8935,20.735 Z" id="Path"></path>
        </g>
    </g>
</svg>